<?xml version="1.0" standalone="no"?>
<!DOCTYPE svg PUBLIC "-//W3C//DTD SVG 20010904//EN"
 "http://www.w3.org/TR/2001/REC-SVG-20010904/DTD/svg10.dtd">
<svg version="1.0" xmlns="http://www.w3.org/2000/svg"
 width="300.000000pt" height="174.000000pt" viewBox="0 0 300.000000 174.000000"
 preserveAspectRatio="xMidYMid meet">
<metadata>
Created by potrace 1.10, written by Peter Selinger 2001-2011
</metadata>
<g transform="translate(0.000000,174.000000) scale(0.100000,-0.100000)"
fill="#000000" stroke="none">
<path d="M700 1673 c0 -60 -1 -82 -8 -140 -3 -21 -32 -15 -32 6 0 27 -13 33
-36 17 -13 -10 -26 -11 -42 -5 -34 13 -72 11 -72 -4 0 -9 -14 -13 -42 -13 -36
1 -42 -2 -40 -16 2 -11 -3 -18 -12 -18 -8 0 -21 -8 -28 -18 -7 -9 -25 -23 -40
-29 -31 -14 -63 -57 -53 -73 3 -5 21 -10 39 -10 31 0 34 -3 40 -35 5 -26 12
-35 27 -35 24 0 50 -23 41 -36 -11 -16 -77 -10 -106 9 -18 12 -26 26 -26 47 0
38 -24 60 -66 60 -24 0 -43 -8 -61 -26 -22 -22 -25 -31 -19 -70 l6 -44 -31 2
c-40 3 -57 23 -41 49 25 39 -16 55 -42 17 -20 -28 -20 -62 -1 -78 14 -12 14
-15 0 -30 -23 -26 -18 -56 15 -83 34 -29 38 -41 11 -32 -27 8 -71 -15 -77 -42
-8 -32 12 -53 51 -53 l32 0 -19 -40 c-23 -45 -18 -84 11 -100 11 -5 27 -7 35
-4 20 8 21 34 2 34 -26 0 -29 21 -8 69 47 110 51 142 22 178 -35 45 -22 63 46
63 24 0 38 6 49 24 15 22 15 27 0 56 -16 30 -16 34 0 49 15 15 17 15 31 -3 8
-11 14 -27 14 -36 0 -19 40 -60 59 -60 8 0 11 -6 7 -16 -3 -9 -6 -20 -6 -25 0
-5 -8 -9 -19 -9 -10 0 -30 -9 -43 -20 -23 -17 -26 -27 -26 -87 0 -76 9 -93 47
-93 14 0 31 -4 37 -8 15 -10 13 -84 -4 -101 -7 -7 -12 -28 -11 -45 1 -17 -4
-44 -10 -61 -10 -25 -10 -36 3 -62 29 -61 106 -35 106 35 0 27 4 32 24 32 17
0 26 -7 30 -25 8 -33 1 -45 -28 -45 -32 0 -66 -40 -66 -78 0 -34 29 -72 55
-72 19 0 55 35 55 54 0 7 11 21 25 30 17 11 25 26 25 45 0 18 6 31 16 35 9 4
18 5 19 4 1 -2 7 -11 12 -21 9 -17 12 -15 31 17 12 20 27 36 33 36 7 0 21 7
31 16 13 13 21 14 31 6 15 -12 54 -11 78 4 9 5 32 37 51 72 37 66 49 68 63 9
4 -15 10 -27 15 -27 11 0 40 35 40 48 0 7 6 12 14 12 16 0 46 42 47 67 0 28
49 59 113 71 63 13 92 4 68 -20 -9 -9 -15 -9 -24 0 -7 7 -20 12 -30 12 -22 0
-68 -43 -68 -64 0 -38 70 -62 98 -34 14 14 16 -1 6 -39 l-6 -22 -27 20 c-23
17 -31 18 -58 8 -18 -6 -35 -19 -38 -29 -3 -10 -19 -32 -36 -50 -25 -26 -30
-38 -25 -61 4 -21 2 -29 -9 -29 -30 0 -47 -74 -23 -98 7 -7 20 -12 30 -12 10
0 18 -6 18 -14 0 -7 6 -19 14 -25 9 -8 12 -24 9 -50 -5 -37 9 -63 38 -73 7 -2
11 -33 11 -81 0 -67 3 -79 21 -92 55 -38 86 -6 86 90 0 115 28 164 102 179 16
4 32 19 45 43 20 38 52 50 80 31 6 -5 19 1 29 12 12 13 25 18 37 14 27 -8 84
31 110 77 23 42 38 50 38 21 0 -27 -26 -58 -59 -72 -46 -19 -90 -117 -61 -135
6 -4 5 -15 -2 -30 -6 -13 -7 -32 -3 -42 4 -10 7 -28 6 -40 -1 -13 6 -26 19
-33 17 -9 20 -18 16 -36 -5 -17 -2 -26 9 -30 8 -4 15 -16 15 -28 0 -12 7 -31
15 -43 9 -12 14 -28 13 -35 -2 -7 3 -13 10 -13 6 0 12 3 12 8 0 4 6 20 15 37
8 16 15 40 15 53 0 28 17 47 36 40 8 -3 18 5 24 22 7 18 15 25 26 21 8 -3 17
0 20 7 2 7 20 13 39 14 42 1 55 9 55 32 0 10 7 24 15 31 8 7 15 20 15 28 0 12
3 13 12 4 19 -19 28 -14 44 25 17 40 12 57 -33 119 -25 34 -29 59 -12 70 15 9
29 -14 29 -48 0 -31 41 -78 83 -96 15 -6 27 -18 27 -27 0 -8 8 -23 19 -34 10
-10 20 -24 23 -32 6 -19 77 40 85 71 4 14 7 42 7 63 0 28 5 37 18 37 10 0 20
10 24 24 3 13 14 26 24 29 24 6 37 54 21 78 -16 27 -15 29 22 29 26 0 36 -6
45 -25 14 -31 4 -61 -33 -95 -15 -14 -34 -40 -42 -58 -12 -30 -12 -37 2 -58
30 -46 96 -38 125 16 15 29 29 25 27 -7 -2 -24 2 -28 29 -31 22 -2 40 4 60 21
27 24 28 27 16 59 -15 42 -15 68 -2 68 6 0 9 -12 8 -26 -4 -36 17 -41 38 -9
21 32 6 75 -26 75 -29 0 -26 38 7 72 23 24 24 28 9 34 -24 9 -64 -31 -78 -80
-7 -23 -18 -52 -25 -65 -6 -14 -10 -28 -7 -33 3 -4 -5 -8 -18 -8 -13 0 -41
-12 -61 -26 -51 -35 -60 -21 -15 21 41 37 53 70 44 115 -4 22 -2 30 9 30 13 0
55 45 55 59 0 4 -6 16 -14 27 -14 18 -15 18 -24 -6 -6 -14 -17 -31 -25 -38
-18 -16 -47 -5 -47 17 0 9 -7 27 -16 39 -14 21 -14 22 9 22 33 0 52 25 54 74
1 23 5 55 8 72 9 40 -17 68 -56 62 -23 -4 -28 0 -33 24 -4 23 -11 28 -35 28
-23 0 -30 5 -36 28 -3 15 -16 37 -27 49 l-20 22 38 16 c22 9 68 23 104 31 l65
14 -65 -4 c-55 -3 -132 -28 -159 -52 -2 -2 9 -18 24 -36 24 -29 27 -38 22 -84
-4 -37 -1 -58 9 -73 9 -12 11 -21 6 -21 -5 0 -26 -21 -46 -47 -41 -52 -49 -48
-11 7 33 47 40 167 12 198 -35 38 -70 36 -167 -13 l-88 -44 9 -42 c6 -26 6
-46 0 -52 -5 -5 -12 4 -16 25 -8 34 -35 82 -35 61 0 -16 -63 -53 -91 -53 l-24
0 25 21 c20 17 21 20 5 14 -51 -18 -57 -17 -83 13 -29 32 -82 48 -100 30 -9
-9 -17 -7 -32 7 -16 15 -25 17 -38 9 -9 -6 -34 -9 -54 -6 -24 3 -38 0 -38 -7
0 -6 -13 -11 -28 -11 -47 0 -82 -52 -44 -65 11 -3 24 -17 30 -30 11 -23 10
-25 -14 -25 -14 0 -22 4 -19 10 3 5 -11 20 -31 32 -24 14 -32 23 -23 26 21 7
49 34 49 48 0 23 -32 46 -56 40 -21 -6 -22 -4 -11 23 12 33 4 61 -18 61 -9 0
-15 -9 -15 -26 0 -14 -5 -34 -11 -45 -10 -20 -3 -77 16 -121 6 -16 1 -18 -49
-18 -47 0 -61 4 -87 28 l-31 28 33 32 c18 18 39 32 47 32 9 0 13 7 9 20 -3 10
1 24 9 31 8 6 12 15 9 19 -3 5 5 16 17 24 18 13 21 20 12 34 -6 9 -8 24 -3 32
14 28 22 55 26 95 3 25 12 46 24 56 18 14 19 17 5 28 -17 14 -35 15 -108 7
-37 -4 -54 -13 -78 -38 -22 -25 -29 -29 -30 -15 0 27 -14 20 -44 -20 -24 -33
-27 -35 -22 -13 3 14 8 52 12 84 7 57 6 59 -14 54 -14 -4 -22 -2 -22 6 0 27
-32 76 -50 76 -10 0 -20 6 -23 14 -9 22 -89 38 -126 25 -26 -9 -35 -8 -50 5
-10 9 -21 16 -24 16 -4 0 -7 -30 -7 -67z m36 26 c4 -8 25 -9 57 -5 75 8 141
-24 160 -79 10 -28 19 -39 31 -37 15 3 16 -4 11 -50 -4 -29 -8 -59 -10 -65 -6
-18 5 -43 19 -43 6 0 19 14 29 31 17 30 18 31 32 13 13 -18 14 -18 20 -1 4 9
13 17 20 17 8 0 17 9 20 20 6 19 18 25 40 20 5 -1 29 4 52 11 43 12 70 6 44
-10 -8 -5 -17 -33 -22 -62 -5 -29 -14 -56 -20 -60 -6 -4 -8 -12 -4 -18 4 -7 1
-18 -5 -26 -9 -11 -10 -18 -1 -29 9 -10 8 -15 -4 -20 -8 -3 -15 -12 -15 -19 0
-8 -7 -20 -15 -27 -8 -7 -15 -21 -15 -31 0 -10 -10 -24 -22 -30 -13 -7 -28
-19 -35 -28 -10 -15 -12 -14 -18 1 -9 22 -34 31 -51 17 -11 -9 -11 -15 -3 -25
6 -8 16 -14 21 -14 6 0 5 7 -2 15 -7 8 -8 15 -2 15 5 0 15 -7 22 -15 9 -11 9
-15 1 -15 -7 0 8 -18 33 -40 47 -39 98 -57 134 -46 11 4 31 2 46 -3 29 -12 35
-1 10 20 -9 7 -20 24 -25 37 -18 48 39 95 70 58 9 -11 8 -18 -4 -30 -23 -22
-42 -20 -22 2 21 23 21 32 1 32 -8 0 -12 -5 -9 -10 4 -6 1 -9 -7 -8 -8 2 -14
-8 -16 -24 -3 -23 3 -32 32 -49 20 -11 33 -26 30 -33 -3 -8 5 -15 23 -19 15
-3 35 -8 44 -12 33 -13 28 31 -8 70 -38 41 -33 55 19 55 15 0 29 4 32 9 3 5
32 7 63 5 32 -2 82 -5 111 -6 44 -3 56 -7 66 -26 13 -24 58 -52 82 -52 8 0 14
-4 14 -9 0 -5 10 -11 22 -14 20 -6 20 -7 4 -29 -9 -13 -23 -33 -32 -45 -12
-17 -14 -29 -6 -50 6 -17 11 -21 11 -11 1 10 15 24 31 33 35 18 38 10 8 -22
-24 -25 -18 -44 7 -23 27 22 46 68 39 94 -5 21 -1 24 31 30 35 7 64 -2 37 -11
-22 -8 -33 -40 -23 -66 12 -30 43 -42 71 -27 22 12 25 2 21 -72 -2 -28 2 -40
18 -50 23 -14 28 -28 9 -28 -6 0 -22 -10 -35 -22 -29 -27 -31 -73 -3 -88 12
-6 25 -22 30 -36 14 -36 55 -52 78 -31 28 26 33 21 25 -25 -4 -26 -17 -53 -32
-69 -26 -26 -26 -26 -38 -5 -7 12 -17 33 -23 48 -7 17 -22 29 -40 33 -16 3
-31 13 -34 21 -3 8 -12 14 -21 14 -10 0 -15 10 -15 34 0 46 -32 85 -57 70 -27
-16 -27 -57 -1 -90 38 -48 49 -73 42 -99 -5 -20 -11 -24 -30 -19 -19 5 -26 1
-33 -19 -5 -14 -15 -28 -20 -32 -6 -3 -11 -15 -11 -26 0 -19 -17 -24 -62 -20
-10 1 -18 -3 -18 -8 0 -6 -9 -11 -20 -11 -11 0 -23 -7 -26 -15 -4 -8 -12 -15
-19 -15 -19 0 -55 -49 -55 -74 0 -12 -6 -31 -14 -42 -14 -18 -15 -18 -21 11
-3 17 -10 38 -16 47 -5 10 -9 26 -9 36 0 10 -8 27 -19 38 -25 27 -35 88 -19
113 10 16 10 23 0 33 -16 16 -15 43 3 58 8 7 15 20 15 30 0 10 13 23 30 30 38
16 70 55 70 87 0 36 -30 41 -54 9 -54 -72 -84 -97 -109 -91 -15 4 -30 1 -40
-9 -16 -17 -41 -17 -66 -2 -10 6 -20 2 -33 -14 -27 -33 -41 -14 -35 47 11 91
19 122 38 139 12 11 19 31 19 53 1 36 28 81 50 81 7 0 27 7 45 16 25 12 38 13
53 5 15 -8 23 -7 33 5 15 19 6 27 -51 43 -32 9 -45 10 -48 2 -5 -14 -82 -14
-119 0 -19 7 -29 7 -31 0 -2 -6 -12 -11 -23 -11 -32 0 -55 -33 -62 -90 -7 -54
-36 -140 -49 -140 -3 0 2 24 13 52 19 53 26 113 12 106 -5 -2 -20 -10 -35 -17
-34 -17 -58 -8 -58 22 0 31 18 47 52 47 20 0 31 -7 37 -22 9 -22 10 -22 21 10
7 19 22 37 34 42 18 7 16 9 -19 18 -38 10 -107 4 -133 -12 -7 -4 -12 -1 -12 8
0 11 9 16 30 16 17 0 30 3 30 6 0 21 -116 112 -127 100 -7 -7 17 -76 27 -76 4
0 11 -12 15 -27 5 -23 1 -33 -24 -55 -17 -15 -31 -35 -31 -44 0 -23 -19 -54
-34 -54 -7 0 -19 -12 -26 -27 l-13 -28 -9 28 c-5 15 -14 27 -19 27 -5 0 -9 14
-9 31 0 42 -20 33 -36 -17 -22 -65 -26 -74 -34 -74 -5 0 -13 -13 -18 -29 -12
-33 -60 -46 -92 -24 -16 12 -21 10 -34 -9 -9 -12 -19 -19 -22 -15 -10 9 -44
-22 -44 -40 0 -28 -19 -11 -26 22 -3 19 -10 38 -15 41 -5 3 -9 20 -9 38 0 18
-5 47 -11 64 -10 29 -8 34 25 67 20 20 36 45 36 56 0 11 17 36 37 55 32 31 41
34 73 29 50 -8 88 21 71 53 -9 17 -21 22 -52 22 -23 0 -53 -6 -67 -14 -66 -35
-127 -42 -102 -11 13 16 5 35 -15 35 -7 0 -32 16 -54 37 -32 29 -38 39 -29 50
8 11 6 18 -10 33 -12 11 -28 20 -37 20 -9 0 -15 9 -15 23 0 31 -18 47 -52 47
-37 0 -36 17 3 38 18 9 43 27 57 40 14 12 29 22 33 22 5 0 9 7 9 15 0 11 11
15 39 15 22 0 41 5 43 11 3 9 14 8 41 -2 29 -10 40 -10 49 -1 19 19 28 14 28
-13 0 -16 6 -25 15 -25 9 0 18 -13 22 -31 4 -19 14 -34 25 -37 11 -2 24 -15
28 -28 10 -24 49 -40 75 -30 25 9 18 45 -12 58 -40 17 -63 44 -63 72 0 14 -8
30 -17 36 -13 8 -14 13 -6 16 8 4 11 15 7 30 -4 14 -1 31 6 39 8 10 9 19 3 28
-15 18 -25 67 -14 67 5 0 13 -5 17 -11z m-18 -213 c4 -31 31 -62 67 -76 28
-11 33 -30 9 -30 -21 0 -84 63 -84 84 0 8 -4 18 -10 21 -14 9 -12 37 3 33 6
-3 13 -17 15 -32z m-430 -162 c4 -35 27 -61 67 -79 29 -13 29 -13 5 -14 -36
-1 -71 30 -79 70 -6 31 -10 34 -41 34 l-35 0 0 -60 0 -60 -40 -8 c-80 -18 -91
-37 -49 -92 23 -30 25 -39 16 -60 -14 -29 -55 -58 -78 -53 -27 5 -40 33 -25
52 15 18 61 22 61 5 0 -6 -7 -9 -15 -6 -17 7 -31 -11 -18 -24 12 -12 63 27 63
48 0 8 -13 27 -30 41 -33 29 -37 47 -15 75 12 16 11 23 -5 50 -19 31 -13 67
12 67 9 0 9 -3 0 -12 -31 -31 3 -78 54 -74 49 4 55 12 48 65 -6 50 2 65 41 73
35 8 60 -7 63 -38z m1002 -72 c0 -10 -4 -22 -9 -27 -5 -6 -12 -19 -15 -30 -3
-11 -3 -6 0 10 3 17 6 38 7 48 2 23 17 22 17 -1z m866 -43 c19 -15 19 -79 0
-79 -7 0 -19 7 -26 15 -7 8 -25 15 -40 15 -22 0 -29 6 -34 27 -5 17 -3 29 6
35 16 11 75 3 94 -13z m-1742 3 c6 -9 -16 -82 -25 -82 -4 0 -12 7 -19 15 -9
11 -9 15 -1 15 7 0 9 5 5 11 -5 8 -9 8 -14 -1 -6 -9 -9 -9 -15 0 -4 6 1 20 11
31 17 19 49 26 58 11z m80 -28 c21 -21 20 -40 -4 -64 -26 -26 -45 -25 -64 1
-34 49 27 105 68 63z m1534 -11 c2 -8 -5 -13 -16 -13 -25 0 -56 -35 -49 -55 4
-8 2 -25 -2 -37 -10 -26 -16 -16 -24 44 -5 33 -2 39 26 57 35 22 58 23 65 4z
m-1494 -37 c-4 -18 -1 -25 16 -29 28 -7 17 -27 -15 -27 -32 0 -37 11 -22 49
13 36 30 42 21 7z m215 15 c8 -5 11 -16 8 -25 -5 -13 -16 -14 -53 -9 -38 5
-49 3 -60 -11 -7 -10 -17 -15 -23 -11 -15 9 -14 25 2 25 7 0 30 9 52 20 44 22
54 24 74 11z m1521 -10 c11 -21 4 -51 -12 -51 -5 0 -6 -5 -3 -10 4 -6 -4 -5
-19 1 -32 15 -38 32 -20 58 19 26 40 27 54 2z m-1910 -6 c28 -34 -22 -84 -72
-72 -33 9 -42 34 -23 63 18 28 75 33 95 9z m1689 -4 c13 -24 5 -31 -36 -31
-34 0 -43 16 -21 38 18 18 46 15 57 -7z m62 8 c25 -13 14 -32 -14 -23 -28 8
-30 11 -22 23 8 14 11 14 36 0z m-1021 -71 c0 -4 -7 -8 -15 -8 -8 0 -15 6 -15
14 0 7 -7 19 -15 26 -8 7 -15 17 -15 23 0 6 14 -2 30 -18 17 -16 30 -32 30
-37z m800 17 c0 -26 -4 -33 -15 -29 -11 4 -16 -4 -21 -34 -5 -29 -13 -43 -31
-51 -36 -17 -43 -3 -10 21 32 23 37 71 10 87 -16 9 -14 11 15 21 17 7 32 16
32 22 0 5 5 6 10 3 6 -3 10 -22 10 -40z m-1470 20 c7 -8 23 -15 36 -15 28 0
31 -12 8 -31 -12 -10 -19 -10 -32 -1 -10 7 -24 15 -33 18 -11 4 -15 13 -12 25
6 23 16 24 33 4z m187 -29 c-4 -9 -13 -16 -22 -16 -18 0 -19 5 -4 32 13 24 35
9 26 -16z m1493 3 c0 -10 -6 -19 -14 -19 -19 0 -28 14 -20 33 8 21 34 10 34
-14z m66 6 c-1 -25 -4 -26 -38 -17 -14 3 -15 8 -7 23 15 29 46 25 45 -6z m178
12 c11 -8 17 -23 14 -38 -2 -20 -8 -24 -38 -24 -41 0 -52 25 -24 56 20 23 25
23 48 6z m-304 -17 c0 -5 -6 -10 -14 -10 -8 0 -21 -9 -29 -20 -8 -11 -17 -17
-20 -13 -11 10 -8 20 9 37 17 18 54 22 54 6z m-1636 -23 c26 -19 18 -68 -16
-86 -24 -14 -28 -14 -47 3 -28 26 -26 50 5 75 31 25 35 25 58 8z m161 -5 c20
-13 14 -50 -13 -79 l-27 -28 -5 45 c-4 32 -2 48 9 58 17 14 22 15 36 4z m1505
-7 c10 -12 10 -21 1 -41 -15 -34 -64 -31 -69 4 -7 44 41 70 68 37z m-1760 -25
c0 -36 -24 -50 -47 -27 -22 22 -8 57 23 57 20 0 24 -5 24 -30z m1833 24 c10
-10 -23 -53 -37 -48 -10 4 -15 37 -7 52 2 5 38 2 44 -4z m129 -6 c3 -7 1 -17
-4 -23 -5 -5 -15 -19 -23 -30 -13 -19 -15 -19 -31 -3 -15 14 -16 22 -6 43 12
27 57 36 64 13z m-1778 -14 c22 -21 20 -38 -7 -70 -20 -23 -26 -25 -45 -15
-26 14 -27 18 -7 65 16 39 34 45 59 20z m1486 -18 c0 -7 7 -19 15 -26 20 -16
2 -40 -30 -40 -35 0 -46 38 -19 64 19 20 34 21 34 2z m364 -8 c14 -23 -4 -72
-27 -76 -22 -4 -57 25 -57 46 0 44 61 66 84 30z m-2224 -5 c0 -5 -9 -21 -20
-38 -25 -37 -26 -71 -2 -85 15 -10 15 -10 -3 -8 -27 4 -30 39 -8 94 16 39 33
58 33 37z m1324 -10 c-16 -7 -36 -13 -44 -13 -24 -2 -63 -58 -66 -96 -1 -18
-12 -46 -23 -60 -12 -15 -21 -33 -21 -40 0 -8 -6 -14 -14 -14 -11 0 -13 9 -9
34 6 37 -10 76 -31 76 -10 0 -12 12 -8 48 8 76 9 77 156 77 80 1 86 -1 60 -12z
m755 -2 c9 -15 6 -22 -14 -35 -13 -9 -27 -16 -30 -16 -9 0 -6 30 5 51 13 24
26 24 39 0z m-81 -28 c2 -14 -2 -23 -9 -23 -7 0 -23 -10 -36 -21 -19 -19 -25
-20 -38 -9 -22 18 -15 52 15 67 36 19 64 12 68 -14z m-1692 -22 l25 -19 -33
-16 c-39 -20 -68 -12 -68 18 0 12 3 26 7 29 12 13 45 7 69 -12z m1832 7 c18
-18 14 -56 -6 -67 -13 -7 -27 -4 -50 11 -37 23 -38 25 -15 50 18 21 53 24 71
6z m-100 -47 c5 -33 -9 -43 -41 -26 -23 12 -27 12 -27 -1 0 -9 10 -14 27 -14
20 0 24 -3 16 -11 -14 -14 -41 -5 -50 16 -3 9 0 28 6 41 15 34 64 31 69 -5z
m-1645 2 c2 -10 8 -26 12 -35 5 -13 2 -18 -11 -18 -24 0 -46 44 -31 59 16 16
24 14 30 -6z m1787 -32 c0 -22 -35 -55 -49 -46 -16 10 -13 22 12 48 24 26 37
25 37 -2z m-1832 7 c18 -18 15 -53 -7 -79 -16 -21 -22 -22 -45 -11 -28 13 -35
47 -16 83 12 21 50 25 68 7z m1601 -10 c9 -25 -3 -48 -24 -48 -17 0 -27 28
-20 51 9 26 34 24 44 -3z m-1693 -22 c-1 -28 -6 -35 -24 -39 -31 -6 -39 16
-18 48 24 36 43 32 42 -9z m768 15 c33 -36 -19 -90 -68 -71 -30 11 -35 44 -9
72 21 23 55 23 77 -1z m1074 -16 c6 -47 -53 -79 -60 -32 -6 35 13 68 36 65 15
-2 22 -12 24 -33z m-968 -27 c0 -34 -25 -48 -47 -26 -13 14 -13 19 2 47 13 27
19 30 31 20 8 -6 14 -25 14 -41z m1144 11 c-9 -10 -25 -19 -34 -19 -14 0 -16
-8 -12 -54 4 -52 3 -54 -37 -91 -70 -65 -43 -99 34 -44 53 38 82 32 78 -16 -2
-28 14 -30 31 -2 8 12 6 21 -7 35 -21 23 -22 61 -2 68 9 4 15 19 15 40 0 20 8
42 23 56 12 13 17 17 11 8 -33 -44 -24 -90 17 -90 13 0 19 -7 19 -24 0 -14 -4
-28 -10 -31 -5 -3 -10 3 -10 15 0 25 -28 38 -41 19 -5 -8 -7 -23 -3 -34 19
-63 17 -73 -16 -90 -41 -21 -66 -14 -48 15 9 14 10 22 1 31 -14 14 -44 -2 -67
-36 -31 -47 -96 -27 -96 30 0 9 21 37 46 62 48 49 51 62 29 132 -7 21 -5 22
14 16 30 -9 59 2 67 28 4 14 9 17 12 9 2 -7 -4 -22 -14 -33z m-1864 -13 c0
-14 5 -28 10 -31 17 -11 11 -54 -10 -65 -15 -8 -24 -6 -40 10 -25 25 -25 44 1
81 25 35 39 37 39 5z m1615 4 c9 -15 -14 -77 -31 -84 -26 -10 -54 12 -54 42 0
16 5 33 12 40 15 15 64 16 73 2z m-1067 -47 c21 -8 21 -10 6 -31 -27 -39 -84
-23 -84 25 0 28 30 47 45 27 5 -7 20 -17 33 -21z m-688 -3 c12 -23 4 -64 -16
-80 -36 -31 -78 27 -55 76 13 30 56 33 71 4z m1840 -15 c0 -59 -61 -60 -68 -2
-3 21 1 26 25 30 15 2 31 5 36 6 4 0 7 -15 7 -34z m-1017 4 c14 -22 1 -67 -23
-74 -28 -9 -60 12 -60 40 0 48 59 72 83 34z m840 -11 c13 -20 -25 -63 -47 -55
-21 8 -20 36 1 59 18 21 32 20 46 -4z m-769 4 c4 -7 -12 -79 -21 -91 -1 -2
-10 2 -18 9 -15 12 -14 56 2 83 6 10 31 9 37 -1z m881 -42 c17 -19 15 -50 -4
-50 -12 0 -16 7 -25 43 -8 32 4 35 29 7z m-43 -15 c21 -46 -36 -97 -70 -63
-17 17 -15 48 5 70 23 25 51 22 65 -7z m-1611 5 c5 0 9 -7 9 -15 0 -8 -8 -15
-17 -15 -14 0 -15 -2 -4 -9 10 -6 10 -10 1 -16 -6 -4 -12 -5 -13 -4 -1 2 -8
14 -15 27 -15 26 -7 46 15 38 8 -3 19 -6 24 -6z m523 -3 c35 -26 -10 -86 -54
-72 -26 8 -33 35 -15 61 17 27 42 31 69 11z m93 -5 c17 -29 0 -47 -21 -23 -10
11 -15 25 -11 30 9 16 19 13 32 -7z m-666 -36 c24 -53 -44 -116 -71 -66 -11
21 -6 55 12 78 17 20 48 14 59 -12z m624 14 c3 -5 -3 -18 -15 -30 -18 -18 -25
-39 -21 -62 2 -14 -18 -8 -27 8 -6 12 -2 23 15 40 12 13 23 30 23 39 0 17 16
20 25 5z m139 1 c10 -16 -18 -71 -36 -71 -10 0 -18 5 -18 11 0 5 4 8 9 4 5 -3
13 0 16 6 5 6 0 9 -11 8 -24 -4 -44 8 -44 26 0 8 14 15 33 18 17 2 35 5 39 5
4 1 9 -2 12 -7z m70 -53 c15 -30 15 -33 -3 -51 -36 -37 -76 11 -55 67 10 27
41 18 58 -16z m-156 10 c28 -28 6 -98 -31 -98 -44 0 -58 35 -35 85 12 27 45
34 66 13z m83 -59 c16 -32 -4 -48 -31 -24 -11 10 -20 24 -20 32 0 21 38 15 51
-8z m-36 -79 c-12 -47 -46 -65 -73 -38 -19 19 -14 37 20 69 31 28 34 28 46 12
7 -10 10 -29 7 -43z m-112 36 c20 -16 23 -66 3 -66 -7 0 -19 7 -26 15 -11 13
-10 14 5 9 13 -5 16 -4 11 4 -4 7 -14 12 -22 12 -16 0 -16 2 -8 24 7 19 14 20
37 2z m84 -99 c11 4 14 0 11 -13 -2 -13 -15 -21 -41 -25 -42 -7 -52 1 -43 36
6 22 8 23 32 10 15 -7 33 -11 41 -8z m-3 -63 c30 -30 11 -84 -29 -84 -57 0
-51 93 7 99 4 1 14 -6 22 -15z"/>
<path d="M780 1632 c0 -5 10 -22 22 -38 13 -15 17 -25 10 -20 -6 4 -12 2 -12
-3 0 -6 8 -11 17 -11 9 0 28 -10 41 -22 14 -13 23 -18 21 -12 -6 17 -99 117
-99 106z"/>
<path d="M884 1537 c-3 -104 26 -277 46 -277 4 0 2 17 -5 38 -11 31 -11 42 2
72 9 19 18 51 19 70 4 30 2 28 -12 -15 -14 -42 -18 -47 -25 -30 -4 11 -8 52
-8 92 -1 70 -15 112 -17 50z"/>
<path d="M1117 1413 c-19 -27 -47 -59 -61 -72 -21 -20 -26 -21 -26 -8 0 9 -4
17 -10 17 -5 0 -7 -6 -4 -14 3 -8 -8 -29 -24 -47 -30 -36 -50 -89 -32 -89 5 0
10 9 10 21 0 31 56 78 102 85 25 4 36 10 30 16 -6 6 -18 5 -33 -3 l-24 -12 20
23 c11 13 38 36 60 53 22 16 32 27 23 24 -24 -8 -23 2 4 30 12 13 17 23 11 23
-6 0 -27 -21 -46 -47z"/>
<path d="M425 1419 c-5 -7 4 -8 27 -4 39 7 123 -10 158 -32 l24 -16 -39 -13
-40 -13 50 4 c48 5 52 3 99 -40 27 -25 46 -48 43 -52 -4 -3 -35 -5 -69 -4 -35
0 -70 -4 -78 -9 -21 -13 110 -13 146 0 33 13 130 -3 154 -25 24 -22 36 -18 15
5 -9 10 -43 24 -74 31 -73 15 -91 25 -91 52 0 13 -7 32 -15 43 -17 22 -19 15
-5 -20 5 -14 7 -26 4 -26 -15 0 -107 88 -116 110 -6 16 -12 20 -17 12 -5 -9
-16 -9 -41 -2 -46 13 -127 13 -135 -1z"/>
<path d="M847 1105 c-62 -63 -79 -75 -108 -76 -23 -1 -27 -3 -11 -6 20 -4 17
-8 -27 -44 -47 -37 -110 -124 -98 -135 3 -3 13 8 22 26 19 37 83 110 97 110 5
0 4 -8 -2 -19 -5 -11 -10 -32 -9 -48 0 -22 3 -17 13 20 12 44 49 97 68 97 4 0
8 -12 9 -27 1 -29 3 -25 13 17 7 34 80 121 119 143 28 15 29 17 9 17 -14 0
-47 -26 -95 -75z"/>
<path d="M916 1098 c8 -97 16 -138 25 -132 5 3 9 13 9 23 0 10 10 22 23 26 21
8 21 8 -5 12 -27 4 -39 26 -52 93 -2 14 -3 4 0 -22z"/>
<path d="M1545 1119 c19 -20 19 -20 -9 -10 -15 6 -32 11 -38 11 -21 0 2 -13
49 -29 59 -20 72 -46 18 -35 -27 5 -36 4 -31 -5 4 -6 27 -11 51 -11 41 0 47
-4 97 -61 29 -33 62 -65 73 -71 13 -7 9 1 -12 24 -18 19 -33 44 -33 56 0 26
-29 87 -37 79 -2 -3 0 -14 6 -25 27 -50 6 -41 -62 26 -40 39 -76 72 -81 72 -5
0 -1 -9 9 -21z"/>
<path d="M1660 878 c-93 -13 -131 -14 -167 -4 -22 5 -33 4 -33 -3 0 -6 12 -11
26 -11 14 0 34 -5 45 -11 19 -10 19 -10 -1 -39 -11 -15 -20 -34 -20 -41 0 -8
11 3 25 24 33 48 90 77 154 77 27 0 53 5 56 10 3 6 0 9 -7 8 -7 0 -42 -5 -78
-10z"/>
<path d="M1819 867 c7 -9 20 -17 27 -17 23 0 54 -38 54 -65 0 -14 4 -25 9 -25
4 0 6 12 3 28 l-5 27 33 -30 c18 -16 30 -25 26 -18 -4 7 2 13 16 15 21 4 20 5
-7 13 -16 4 -43 19 -58 32 -23 19 -26 24 -13 29 9 3 23 4 31 0 8 -3 15 -1 15
4 0 5 -24 9 -52 7 -29 -1 -62 3 -73 8 -18 8 -19 7 -6 -8z"/>
<path d="M1755 837 c-8 -20 -15 -45 -15 -56 0 -11 -14 -28 -34 -40 -31 -19
-66 -60 -66 -77 0 -3 19 12 41 35 48 48 62 51 53 14 -16 -70 -84 -163 -119
-163 -6 0 -20 -9 -30 -20 -22 -24 -9 -27 17 -3 26 23 31 12 13 -30 -8 -20 -15
-53 -14 -74 l1 -38 9 44 c10 50 43 124 65 142 13 10 14 7 9 -27 -4 -21 -2 -50
4 -64 8 -21 10 -14 10 41 1 43 8 82 20 110 l20 43 6 -29 c11 -49 26 -83 43
-97 13 -11 14 -10 4 9 -15 28 -15 36 1 27 6 -4 1 5 -13 20 -22 24 -24 35 -24
114 1 48 6 100 13 116 6 16 9 31 6 34 -2 3 -12 -11 -20 -31z"/>
<path d="M1475 826 c-32 -14 -100 -84 -91 -93 3 -3 15 5 26 18 l20 24 -6 -29
c-5 -21 -4 -27 5 -22 6 4 11 17 11 30 0 27 33 59 75 74 21 7 24 11 10 11 -11
0 -34 -6 -50 -13z"/>
<path d="M2599 1617 c-13 -5 -40 -11 -59 -13 -42 -5 -72 -39 -66 -73 7 -43 -3
-50 -33 -20 -33 32 -83 44 -146 35 -47 -7 -53 -14 -33 -34 8 -8 8 -15 0 -25
-14 -17 -5 -56 21 -84 24 -27 25 -26 -33 -40 -42 -11 -46 -10 -68 13 -27 28
-69 31 -132 9 -25 -9 -57 -13 -76 -9 -45 8 -76 -10 -72 -44 3 -24 -2 -29 -42
-42 -42 -14 -46 -14 -63 3 -11 11 -27 17 -38 14 -17 -5 -19 -1 -14 27 9 48
-14 65 -61 43 -43 -21 -54 -21 -54 -2 0 22 -28 18 -35 -5 -11 -36 13 -53 65
-47 l47 6 -8 -47 c-8 -50 8 -92 36 -92 8 0 18 -6 22 -14 4 -7 18 -18 30 -24
18 -10 35 -5 114 34 50 25 115 54 143 66 81 31 116 57 116 83 0 34 -31 40
-111 19 -61 -16 -69 -21 -69 -42 0 -13 5 -32 10 -43 8 -13 7 -19 0 -19 -13 0
-30 44 -27 72 1 11 -4 23 -10 25 -19 7 -29 -27 -12 -38 11 -7 11 -9 -3 -9 -22
0 -31 15 -23 39 6 19 11 20 198 37 57 6 57 6 63 -24 l6 -29 64 23 c60 22 94
23 94 3 0 -5 11 -9 25 -9 32 0 32 -10 0 -40 -17 -16 -22 -27 -15 -35 5 -7 7
-15 3 -18 -3 -4 -1 -7 6 -7 8 0 11 -6 7 -15 -3 -8 -9 -22 -12 -30 -4 -11 0
-15 15 -15 12 0 20 -6 19 -12 -2 -7 4 -13 12 -13 8 0 18 -8 23 -19 4 -11 13
-16 22 -12 9 3 15 0 15 -8 0 -8 17 -23 38 -33 22 -12 38 -28 40 -41 2 -12 7
-22 12 -22 13 0 30 34 30 59 0 12 9 30 20 41 18 18 20 28 14 71 -6 48 -6 50
12 41 10 -5 36 -17 57 -27 24 -12 40 -28 44 -43 l6 -25 18 22 c22 27 36 128
21 152 -9 14 -9 17 1 13 12 -4 54 23 107 68 15 13 41 18 93 18 29 0 35 16 15
42 -21 25 -61 48 -83 48 -12 0 -44 11 -72 25 l-50 25 -44 -19 c-41 -19 -44
-19 -48 -3 -2 9 -7 22 -13 29 -5 6 -6 22 -3 36 6 21 3 25 -23 29 -17 2 -40 0
-53 -5z m47 -23 c-4 -9 1 -28 10 -41 17 -27 13 -53 -9 -53 -23 0 -42 -29 -29
-42 9 -9 17 -6 34 9 13 12 49 30 81 42 57 19 59 19 90 1 18 -10 48 -21 68 -25
20 -4 49 -18 65 -32 16 -13 22 -22 13 -20 -21 7 -109 -12 -109 -23 0 -5 -19
-22 -42 -39 -33 -24 -49 -30 -70 -25 -21 4 -28 2 -28 -10 0 -8 9 -18 20 -21
22 -7 23 -18 13 -90 -5 -38 -8 -45 -17 -33 -18 24 -69 53 -87 50 -10 -2 -25
11 -37 33 -13 22 -29 35 -42 35 -25 0 -25 -8 -1 -34 20 -22 37 -126 21 -126
-5 0 -12 -12 -16 -27 -14 -65 -13 -63 -41 -37 -14 13 -32 24 -39 24 -8 0 -14
7 -14 15 0 8 -18 23 -40 32 -22 10 -40 23 -40 30 0 6 -6 13 -12 16 -10 4 -10
7 0 18 16 18 15 29 -3 29 -35 0 -4 49 48 74 33 17 32 49 -5 103 -23 32 -41 49
-58 51 -24 2 -24 2 5 -14 27 -16 28 -18 10 -25 -19 -7 -19 -8 2 -8 26 -1 72
-54 51 -59 -7 -2 -25 -7 -40 -12 -19 -6 -27 -5 -25 2 1 7 -7 14 -18 16 -44 9
-92 75 -73 99 6 7 8 23 5 34 -6 21 -3 21 54 16 68 -6 94 -23 103 -68 10 -52
34 -36 42 29 3 32 11 65 18 73 6 8 36 22 66 31 74 21 83 21 76 2z m-1008 -244
c8 0 31 5 49 12 23 8 36 9 44 1 12 -12 2 -63 -13 -63 -5 0 -7 9 -3 19 8 26 -7
33 -40 21 -34 -13 -65 -4 -64 18 0 11 3 12 6 5 2 -7 12 -13 21 -13z m506 -9
c3 -4 -3 -16 -14 -26 -22 -20 -120 -67 -119 -57 1 4 0 9 -1 12 -9 23 -6 40 7
40 11 0 14 -6 10 -22 -5 -19 -5 -20 10 -6 20 21 9 38 -25 39 -21 0 -17 3 18
13 54 16 107 19 114 7z m-349 -76 c0 -12 -8 -21 -20 -24 -16 -3 -17 -1 -7 12
18 22 -5 34 -26 14 -13 -13 -13 -19 -2 -31 19 -23 38 -20 77 14 29 26 42 30
90 30 31 0 53 -3 49 -7 -4 -4 -26 -6 -50 -4 -40 2 -46 -1 -76 -39 -26 -33 -30
-43 -20 -55 10 -12 10 -15 -1 -15 -8 0 -21 5 -29 10 -13 9 -13 11 0 20 12 7 8
10 -15 10 -36 0 -55 16 -55 45 0 30 20 46 55 43 22 -2 30 -8 30 -23z m151 -15
c13 0 24 -3 24 -7 -1 -11 -121 -63 -143 -63 -16 0 -15 4 8 33 30 35 53 48 73
41 8 -2 25 -4 38 -4z"/>
<path d="M2580 1545 c-7 -8 -16 -12 -21 -9 -5 3 -9 -7 -9 -21 0 -28 -23 -79
-48 -108 -8 -9 -13 -20 -10 -23 3 -3 16 9 29 26 13 17 35 43 48 56 20 20 21
23 6 18 -18 -7 -18 -5 3 30 23 40 25 58 2 31z"/>
<path d="M2788 1455 c-2 -3 -18 -6 -34 -8 -17 -2 -34 -6 -39 -9 -6 -3 -28 -13
-49 -22 -39 -16 -39 -16 -21 4 29 32 4 23 -31 -11 -24 -23 -45 -33 -78 -36
-25 -3 -43 -10 -40 -15 3 -5 15 -6 26 -2 33 10 84 -5 123 -36 21 -17 40 -28
43 -25 9 9 -23 38 -63 56 l-39 18 29 11 c17 7 49 10 72 7 24 -2 40 -1 37 4 -3
5 -15 9 -27 9 -20 1 -20 2 -4 11 10 6 31 11 47 11 17 1 30 4 30 9 0 4 28 12
63 17 l62 9 -51 2 c-28 0 -53 -1 -56 -4z"/>
<path d="M2486 1318 c4 -20 1 -30 -15 -40 -12 -7 -21 -16 -21 -21 0 -4 11 0
25 9 24 16 25 15 25 -4 0 -11 -7 -25 -15 -32 -8 -7 -15 -17 -15 -22 0 -6 6 -6
14 1 11 9 19 2 40 -41 14 -28 26 -45 26 -37 0 8 -9 32 -20 54 -29 56 -24 85 8
53 9 -9 12 -9 12 -1 0 7 -9 15 -20 18 -12 4 -20 15 -20 29 0 12 -7 31 -15 42
-15 18 -15 18 -9 -8z"/>
</g>
</svg>
