<?xml version="1.0" standalone="no"?>
<!DOCTYPE svg PUBLIC "-//W3C//DTD SVG 20010904//EN"
 "http://www.w3.org/TR/2001/REC-SVG-20010904/DTD/svg10.dtd">
<svg version="1.0" xmlns="http://www.w3.org/2000/svg"
 width="300.000000pt" height="100.000000pt" viewBox="0 0 300.000000 100.000000"
 preserveAspectRatio="xMidYMid meet">
<metadata>
Created by potrace 1.10, written by Peter Selinger 2001-2011
</metadata>
<g transform="translate(0.000000,100.000000) scale(0.100000,-0.100000)"
fill="#000000" stroke="none">
<path d="M1853 820 c-23 -18 -32 -37 -13 -25 11 7 12 1 12 -95 0 -38 0 -77 -1
-85 -2 -28 -28 -15 -78 40 -40 44 -57 55 -81 55 -17 0 -34 -5 -38 -11 -5 -9 1
-10 20 -5 32 8 33 0 4 -23 -16 -13 -19 -24 -14 -44 8 -33 44 -44 85 -27 21 8
35 9 49 1 12 -6 42 -11 68 -11 41 0 45 2 31 13 -13 10 -17 33 -19 124 l-3 111
-22 -18z m-116 -162 c31 -29 30 -50 -3 -46 -31 3 -50 28 -41 52 8 21 16 20 44
-6z"/>
<path d="M990 810 c0 -5 5 -10 10 -10 6 0 10 -38 10 -95 0 -57 -4 -95 -10 -95
-5 0 -10 -4 -10 -9 0 -14 89 -12 125 3 24 10 35 23 40 45 10 46 -3 106 -29
130 -35 33 -136 56 -136 31z m103 -30 c44 -35 46 -134 3 -162 -6 -4 -21 -8
-33 -8 -22 0 -23 3 -23 95 0 104 6 112 53 75z"/>
<path d="M1537 756 c-20 -8 -43 -19 -51 -25 -8 -7 -24 -14 -37 -16 -26 -5 -51
-25 -31 -25 7 0 12 -15 12 -38 0 -21 -5 -43 -12 -50 -9 -9 -3 -12 28 -12 31 1
36 3 22 11 -25 14 -23 60 4 94 26 33 77 56 106 48 16 -4 22 -1 22 11 0 19 -13
20 -63 2z"/>
<path d="M376 722 c-3 -5 -49 -7 -103 -4 -91 4 -101 2 -133 -20 -117 -80 -133
-254 -33 -359 58 -61 155 -74 234 -34 38 20 89 76 89 98 0 24 -15 21 -38 -8
-44 -56 -122 -71 -191 -36 -53 27 -73 64 -80 142 -7 70 9 130 41 156 74 62
198 34 215 -48 7 -34 40 -37 35 -4 -1 11 -5 44 -9 73 -5 49 -15 63 -27 44z"/>
<path d="M1197 706 c-12 -9 -14 -16 -8 -21 14 -8 14 -75 1 -75 -5 0 -10 -4
-10 -10 0 -5 12 -10 28 -10 l27 0 -3 65 c-2 36 -7 65 -10 65 -4 0 -15 -7 -25
-14z"/>
<path d="M1270 700 c-19 -12 -14 -68 8 -93 12 -13 25 -17 44 -13 16 3 28 1 28
-4 0 -6 12 -3 26 7 15 9 22 19 15 21 -6 2 -11 24 -11 49 0 41 -1 44 -22 37
-31 -9 -35 -14 -19 -23 7 -5 11 -21 9 -37 -2 -23 -8 -29 -28 -29 -23 0 -25 3
-24 48 0 49 -2 53 -26 37z"/>
<path d="M1502 694 c-12 -10 -13 -13 -3 -14 10 0 12 -11 9 -45 -5 -44 -5 -45
24 -45 25 0 28 2 19 14 -15 18 -10 78 7 84 15 5 46 -64 38 -84 -4 -10 4 -14
32 -14 31 1 34 3 21 13 -9 7 -25 33 -37 59 -19 44 -23 47 -57 46 -19 -1 -43
-7 -53 -14z"/>
<path d="M2103 559 c-102 -30 -133 -173 -52 -245 13 -12 71 -38 129 -59 58
-21 146 -53 197 -71 100 -37 146 -42 196 -20 35 15 74 52 64 63 -4 3 -26 -2
-50 -11 -23 -9 -54 -16 -67 -16 -27 0 -106 22 -136 38 -33 17 -108 51 -128 57
-17 5 -16 8 10 43 24 31 29 47 29 95 0 56 -2 60 -42 98 -45 42 -80 48 -150 28z
m89 -43 c43 -32 53 -144 16 -183 -26 -28 -53 -29 -95 -4 -25 16 -33 29 -38 65
-8 51 8 111 33 126 24 13 64 12 84 -4z"/>
<path d="M2535 559 c-9 -14 4 -29 26 -29 28 0 32 -20 24 -105 -8 -93 -21 -109
-79 -100 -66 11 -76 26 -76 117 0 71 2 80 20 85 11 3 20 12 20 19 0 10 -16 14
-63 14 -73 0 -84 -6 -56 -29 24 -19 41 -84 33 -128 -7 -40 19 -97 52 -112 51
-23 117 -8 155 35 11 12 20 47 24 94 6 61 12 80 33 102 29 31 26 33 -55 42
-29 3 -55 1 -58 -5z"/>
<path d="M477 553 c-13 -12 -7 -22 19 -35 25 -12 26 -17 27 -88 1 -85 -8 -120
-29 -120 -8 0 -14 -6 -14 -14 0 -9 18 -13 65 -14 51 -1 65 2 65 13 0 8 -6 15
-14 15 -14 0 -26 29 -26 68 0 21 4 22 65 22 l65 0 0 -35 c0 -24 -6 -37 -20
-45 -37 -20 -21 -30 48 -30 66 0 67 1 44 18 -21 16 -23 26 -23 106 -1 82 1 91
22 107 13 10 21 20 19 23 -3 2 -32 6 -64 8 -64 3 -86 -13 -43 -33 20 -9 23
-15 18 -47 l-6 -37 -60 0 -60 0 3 34 c1 21 11 40 23 49 13 9 17 18 11 24 -11
11 -126 21 -135 11z"/>
<path d="M858 552 c-24 -5 -22 -15 5 -27 20 -9 22 -17 22 -80 1 -98 -4 -122
-26 -128 -10 -3 -19 -10 -19 -17 0 -16 112 -9 118 8 2 6 -3 12 -12 12 -12 0
-16 11 -16 45 0 25 4 45 9 45 11 0 51 -47 72 -88 13 -22 25 -31 52 -34 62 -7
80 15 28 33 -17 6 -39 25 -50 42 -11 18 -26 40 -33 49 -10 14 -8 20 15 38 33
26 35 64 5 84 -22 13 -133 25 -170 18z m128 -39 c21 -28 17 -58 -10 -72 -34
-19 -46 -7 -46 45 0 38 3 44 21 44 12 0 28 -8 35 -17z"/>
<path d="M1230 549 c-14 -5 -40 -24 -57 -42 -29 -27 -33 -37 -33 -84 0 -46 4
-58 33 -88 70 -75 165 -67 221 18 23 35 27 49 22 86 -10 77 -40 105 -124 116
-20 2 -48 0 -62 -6z m78 -29 c24 0 52 -63 52 -116 0 -40 -5 -55 -24 -73 -34
-32 -83 -31 -113 3 -22 26 -26 42 -25 116 1 43 43 85 76 76 12 -3 27 -6 34 -6z"/>
<path d="M1460 550 c0 -6 12 -22 28 -35 26 -22 27 -28 27 -112 0 -84 -1 -88
-22 -91 -33 -5 -28 -22 6 -22 16 0 43 -3 60 -6 24 -5 31 -3 31 10 0 9 -8 16
-19 16 -14 0 -20 10 -25 46 -7 56 -8 104 -1 104 7 0 98 -94 140 -144 45 -55
58 -42 44 43 -12 80 -3 148 22 162 11 5 19 16 19 24 0 12 -15 15 -65 15 -58 0
-65 -2 -65 -20 0 -16 7 -20 30 -20 l30 0 0 -70 c0 -38 -4 -70 -9 -70 -5 0 -11
4 -13 9 -1 5 -36 45 -77 90 -64 71 -78 81 -107 81 -19 0 -34 -5 -34 -10z"/>
<path d="M1810 546 c0 -8 10 -16 23 -18 21 -3 22 -9 25 -88 4 -105 -2 -130
-29 -130 -12 0 -19 -5 -16 -12 2 -7 13 -13 25 -12 117 4 122 4 122 19 0 8 -9
15 -19 15 -26 0 -31 19 -31 114 0 78 1 83 25 96 42 22 29 30 -50 30 -58 0 -75
-3 -75 -14z"/>
<path d="M2714 549 c-3 -6 1 -18 10 -28 12 -13 16 -39 16 -103 0 -77 -2 -87
-22 -100 -39 -26 -13 -35 91 -34 55 1 101 3 103 6 25 38 37 80 23 80 -3 0 -18
-9 -33 -20 -15 -11 -42 -24 -60 -29 -30 -9 -34 -8 -42 15 -16 42 -12 71 10 77
20 5 50 -15 50 -34 0 -6 4 -8 9 -4 10 6 10 100 0 110 -4 3 -14 -6 -23 -20 -22
-33 -61 -35 -52 -2 3 12 6 29 6 38 0 26 25 29 64 8 47 -25 48 -25 44 14 l-3
32 -92 2 c-55 2 -95 -2 -99 -8z"/>
</g>
</svg>
